<?xml version="1.0" encoding="utf-8"?>
<!-- Generator: Adobe Illustrator 26.0.2, SVG Export Plug-In . SVG Version: 6.00 Build 0)  -->
<svg version="1.1" id="Capa_1" xmlns="http://www.w3.org/2000/svg" xmlns:xlink="http://www.w3.org/1999/xlink" x="0px" y="0px"
	 viewBox="0 0 94.5 101.5" style="enable-background:new 0 0 94.5 101.5;" xml:space="preserve">
<style type="text/css">
	.st0{fill:#FF0000;}
</style>
<g>
	<g>
		<path class="st0" d="M70.25,50.25c0,3.94,3.2,7.14,7.14,7.14c3.94,0,7.14-3.19,7.14-7.14c0-3.94-3.2-7.14-7.14-7.14
			C73.45,43.11,70.25,46.31,70.25,50.25L70.25,50.25z"/>
		<path class="st0" d="M80.19,30.32c-6.71-10.94-18.78-18.24-32.56-18.24c-21.08,0-38.17,17.09-38.17,38.17
			c0,21.08,17.09,38.17,38.17,38.17c14.03,0,26.28-7.56,32.92-18.84l-6.2-3.91c-5.32,9.22-15.27,15.35-26.68,15.35
			c-17,0-30.77-13.78-30.77-30.77c0-16.99,13.78-30.77,30.77-30.77c11.01,0,20.68,5.79,26.11,14.49L80.19,30.32L80.19,30.32z"/>
		<path class="st0" d="M44.24,37.44l16.84,9.66c1.67,0.96,1.67,3.37,0,4.33L44.24,61.1c-1.66,0.95-3.74-0.25-3.74-2.16V39.61
			C40.5,37.69,42.58,36.49,44.24,37.44z"/>
		<path class="st0" d="M65.88,60.09L65.88,60.09c-3.54,6.42-10.37,10.78-18.21,10.78c-11.46,0-20.78-9.32-20.78-20.78
			c0-11.46,9.32-20.78,20.78-20.78c7.18,0,13.52,3.66,17.25,9.21l3.69-2.1c-4.47-6.83-12.19-11.35-20.94-11.35
			c-13.8,0-25.02,11.23-25.02,25.02s11.23,25.02,25.02,25.02c9.4,0,17.6-5.21,21.88-12.9L65.88,60.09z"/>
	</g>
</g>
</svg>
